<svg width="150" height="212" viewBox="0 0 150 212" fill="none" xmlns="http://www.w3.org/2000/svg">
<mask id="mask0_1014_2320" style="mask-type:alpha" maskUnits="userSpaceOnUse" x="0" y="0" width="150" height="212">
<path d="M149.95 22.1118L128.296 0H0V211.721H149.95V22.1118Z" fill="url(#paint0_linear_1014_2320)"/>
</mask>
<g mask="url(#mask0_1014_2320)">
<line y1="-2" x2="213.486" y2="-2" transform="matrix(0.938556 -0.345128 0.508994 0.86077 -115.573 14.4042)" stroke="white" stroke-opacity="0.1" stroke-width="4"/>
<line y1="-2" x2="213.486" y2="-2" transform="matrix(0.938556 -0.345128 0.508994 0.86077 -110.233 24.7357)" stroke="white" stroke-opacity="0.1" stroke-width="4"/>
<line y1="-2" x2="213.486" y2="-2" transform="matrix(0.938556 -0.345128 0.508994 0.86077 -112.901 19.5699)" stroke="white" stroke-opacity="0.1" stroke-width="4"/>
<line y1="-2" x2="213.486" y2="-2" transform="matrix(0.938556 -0.345128 0.508994 0.86077 -107.56 29.9015)" stroke="white" stroke-opacity="0.1" stroke-width="4"/>
<line y1="-2" x2="213.486" y2="-2" transform="matrix(0.938556 -0.345128 0.508994 0.86077 -102.215 40.2341)" stroke="white" stroke-opacity="0.1" stroke-width="4"/>
<line y1="-2" x2="213.486" y2="-2" transform="matrix(0.938556 -0.345128 0.508994 0.86077 -104.888 35.0673)" stroke="white" stroke-opacity="0.1" stroke-width="4"/>
<line y1="-2" x2="213.486" y2="-2" transform="matrix(0.938556 -0.345128 0.508994 0.86077 -83.5246 76.3965)" stroke="white" stroke-opacity="0.1" stroke-width="4"/>
<line y1="-2" x2="213.486" y2="-2" transform="matrix(0.938556 -0.345128 0.508994 0.86077 -78.1798 86.7281)" stroke="white" stroke-opacity="0.1" stroke-width="4"/>
<line y1="-2" x2="213.486" y2="-2" transform="matrix(0.938556 -0.345128 0.508994 0.86077 -80.8522 81.5623)" stroke="white" stroke-opacity="0.1" stroke-width="4"/>
<line y1="-2" x2="213.486" y2="-2" transform="matrix(0.938556 -0.345128 0.508994 0.86077 -75.5074 91.8949)" stroke="white" stroke-opacity="0.1" stroke-width="4"/>
<line y1="-2" x2="213.486" y2="-2" transform="matrix(0.938556 -0.345128 0.508994 0.86077 -70.1666 102.226)" stroke="white" stroke-opacity="0.1" stroke-width="4"/>
<line y1="-2" x2="213.486" y2="-2" transform="matrix(0.938556 -0.345128 0.508994 0.86077 -72.839 97.0596)" stroke="white" stroke-opacity="0.1" stroke-width="4"/>
<line y1="-2" x2="213.486" y2="-2" transform="matrix(0.938556 -0.345128 0.508994 0.86077 -99.547 45.3998)" stroke="white" stroke-opacity="0.1" stroke-width="4"/>
<line y1="-2" x2="213.486" y2="-2" transform="matrix(0.938556 -0.345128 0.508994 0.86077 -94.2062 55.7324)" stroke="white" stroke-opacity="0.1" stroke-width="4"/>
<line y1="-2" x2="213.486" y2="-2" transform="matrix(0.938556 -0.345128 0.508994 0.86077 -96.8786 50.5667)" stroke="white" stroke-opacity="0.1" stroke-width="4"/>
<line y1="-2" x2="213.486" y2="-2" transform="matrix(0.938556 -0.345128 0.508994 0.86077 -91.5338 60.8982)" stroke="white" stroke-opacity="0.1" stroke-width="4"/>
<line y1="-2" x2="213.486" y2="-2" transform="matrix(0.938556 -0.345128 0.508994 0.86077 -86.193 71.2297)" stroke="white" stroke-opacity="0.1" stroke-width="4"/>
<line y1="-2" x2="213.486" y2="-2" transform="matrix(0.938556 -0.345128 0.508994 0.86077 -88.8614 66.064)" stroke="white" stroke-opacity="0.1" stroke-width="4"/>
<line y1="-2" x2="213.486" y2="-2" transform="matrix(0.938556 -0.345128 0.508994 0.86077 -19.4149 200.38)" stroke="white" stroke-opacity="0.1" stroke-width="4"/>
<line y1="-2" x2="213.486" y2="-2" transform="matrix(0.938556 -0.345128 0.508994 0.86077 -14.0741 210.713)" stroke="white" stroke-opacity="0.1" stroke-width="4"/>
<line y1="-2" x2="213.486" y2="-2" transform="matrix(0.938556 -0.345128 0.508994 0.86077 -16.7425 205.547)" stroke="white" stroke-opacity="0.1" stroke-width="4"/>
<line y1="-2" x2="213.486" y2="-2" transform="matrix(0.938556 -0.345128 0.508994 0.86077 -11.4017 215.88)" stroke="white" stroke-opacity="0.1" stroke-width="4"/>
<line y1="-2" x2="213.486" y2="-2" transform="matrix(0.938556 -0.345128 0.508994 0.86077 -6.06091 226.211)" stroke="white" stroke-opacity="0.1" stroke-width="4"/>
<line y1="-2" x2="213.486" y2="-2" transform="matrix(0.938556 -0.345128 0.508994 0.86077 -8.72931 221.045)" stroke="white" stroke-opacity="0.1" stroke-width="4"/>
<line y1="-2" x2="213.486" y2="-2" transform="matrix(0.938556 -0.345128 0.508994 0.86077 12.6339 262.373)" stroke="white" stroke-opacity="0.1" stroke-width="4"/>
<line y1="-2" x2="213.486" y2="-2" transform="matrix(0.938556 -0.345128 0.508994 0.86077 15.3063 267.539)" stroke="white" stroke-opacity="0.1" stroke-width="4"/>
<line y1="-2" x2="213.486" y2="-2" transform="matrix(0.938556 -0.345128 0.508994 0.86077 20.6511 277.872)" stroke="white" stroke-opacity="0.1" stroke-width="4"/>
<line y1="-2" x2="213.486" y2="-2" transform="matrix(0.938556 -0.345128 0.508994 0.86077 25.9919 288.203)" stroke="white" stroke-opacity="0.1" stroke-width="4"/>
<line y1="-2" x2="213.486" y2="-2" transform="matrix(0.938556 -0.345128 0.508994 0.86077 23.3195 283.038)" stroke="white" stroke-opacity="0.1" stroke-width="4"/>
<line y1="-2" x2="213.486" y2="-2" transform="matrix(0.938556 -0.345128 0.508994 0.86077 17.9787 272.705)" stroke="white" stroke-opacity="0.1" stroke-width="4"/>
<line y1="-2" x2="213.486" y2="-2" transform="matrix(0.938556 -0.345128 0.508994 0.86077 -3.38852 231.377)" stroke="white" stroke-opacity="0.1" stroke-width="4"/>
<line y1="-2" x2="213.486" y2="-2" transform="matrix(0.938556 -0.345128 0.508994 0.86077 1.9523 241.709)" stroke="white" stroke-opacity="0.1" stroke-width="4"/>
<line y1="-2" x2="213.486" y2="-2" transform="matrix(0.938556 -0.345128 0.508994 0.86077 -0.720123 236.543)" stroke="white" stroke-opacity="0.1" stroke-width="4"/>
<line y1="-2" x2="213.486" y2="-2" transform="matrix(0.938556 -0.345128 0.508994 0.86077 4.62469 246.875)" stroke="white" stroke-opacity="0.1" stroke-width="4"/>
<line y1="-2" x2="213.486" y2="-2" transform="matrix(0.938556 -0.345128 0.508994 0.86077 9.96552 257.207)" stroke="white" stroke-opacity="0.1" stroke-width="4"/>
<line y1="-2" x2="213.486" y2="-2" transform="matrix(0.938556 -0.345128 0.508994 0.86077 7.29709 252.041)" stroke="white" stroke-opacity="0.1" stroke-width="4"/>
<line y1="-2" x2="213.486" y2="-2" transform="matrix(0.938556 -0.345128 0.508994 0.86077 -67.4942 107.392)" stroke="white" stroke-opacity="0.1" stroke-width="4"/>
<line y1="-2" x2="213.486" y2="-2" transform="matrix(0.938556 -0.345128 0.508994 0.86077 -62.1534 117.725)" stroke="white" stroke-opacity="0.1" stroke-width="4"/>
<line y1="-2" x2="213.486" y2="-2" transform="matrix(0.938556 -0.345128 0.508994 0.86077 -64.8218 112.558)" stroke="white" stroke-opacity="0.1" stroke-width="4"/>
<line y1="-2" x2="213.486" y2="-2" transform="matrix(0.938556 -0.345128 0.508994 0.86077 -59.481 122.891)" stroke="white" stroke-opacity="0.1" stroke-width="4"/>
<line y1="-2" x2="213.486" y2="-2" transform="matrix(0.938556 -0.345128 0.508994 0.86077 -54.1362 133.222)" stroke="white" stroke-opacity="0.1" stroke-width="4"/>
<line y1="-2" x2="213.486" y2="-2" transform="matrix(0.938556 -0.345128 0.508994 0.86077 -56.8086 128.056)" stroke="white" stroke-opacity="0.1" stroke-width="4"/>
<line y1="-2" x2="213.486" y2="-2" transform="matrix(0.938556 -0.345128 0.508994 0.86077 -35.4453 169.385)" stroke="white" stroke-opacity="0.1" stroke-width="4"/>
<line y1="-2" x2="213.486" y2="-2" transform="matrix(0.938556 -0.345128 0.508994 0.86077 -30.1006 179.717)" stroke="white" stroke-opacity="0.1" stroke-width="4"/>
<line y1="-2" x2="213.486" y2="-2" transform="matrix(0.938556 -0.345128 0.508994 0.86077 -32.7729 174.55)" stroke="white" stroke-opacity="0.1" stroke-width="4"/>
<line y1="-2" x2="213.486" y2="-2" transform="matrix(0.938556 -0.345128 0.508994 0.86077 -27.4281 184.883)" stroke="white" stroke-opacity="0.1" stroke-width="4"/>
<line y1="-2" x2="213.486" y2="-2" transform="matrix(0.938556 -0.345128 0.508994 0.86077 -22.0873 195.214)" stroke="white" stroke-opacity="0.1" stroke-width="4"/>
<line y1="-2" x2="213.486" y2="-2" transform="matrix(0.938556 -0.345128 0.508994 0.86077 -24.7597 190.049)" stroke="white" stroke-opacity="0.1" stroke-width="4"/>
<line y1="-2" x2="213.486" y2="-2" transform="matrix(0.938556 -0.345128 0.508994 0.86077 -51.4678 138.389)" stroke="white" stroke-opacity="0.1" stroke-width="4"/>
<line y1="-2" x2="213.486" y2="-2" transform="matrix(0.938556 -0.345128 0.508994 0.86077 -46.127 148.72)" stroke="white" stroke-opacity="0.1" stroke-width="4"/>
<line y1="-2" x2="213.486" y2="-2" transform="matrix(0.938556 -0.345128 0.508994 0.86077 -48.7994 143.555)" stroke="white" stroke-opacity="0.1" stroke-width="4"/>
<line y1="-2" x2="213.486" y2="-2" transform="matrix(0.938556 -0.345128 0.508994 0.86077 -43.4546 153.887)" stroke="white" stroke-opacity="0.1" stroke-width="4"/>
<line y1="-2" x2="213.486" y2="-2" transform="matrix(0.938556 -0.345128 0.508994 0.86077 -38.1137 164.219)" stroke="white" stroke-opacity="0.1" stroke-width="4"/>
<line y1="-2" x2="213.486" y2="-2" transform="matrix(0.938556 -0.345128 0.508994 0.86077 -40.7822 159.053)" stroke="white" stroke-opacity="0.1" stroke-width="4"/>
</g>
<defs>
<linearGradient id="paint0_linear_1014_2320" x1="76.9354" y1="207.467" x2="75.1576" y2="106.001" gradientUnits="userSpaceOnUse">
<stop stop-color="#1D1D1D"/>
<stop offset="1" stop-color="#1D1D1D" stop-opacity="0"/>
</linearGradient>
</defs>
</svg>
