<svg width="31" height="40" viewBox="0 0 31 40" fill="none" xmlns="http://www.w3.org/2000/svg">
<path d="M30.3765 16.04C31.0045 11.848 27.8105 9.594 23.4465 8.09L24.8625 2.41L21.4065 1.55L20.0265 7.08C19.1185 6.852 18.1865 6.64 17.2565 6.428L18.6465 0.862L15.1905 0L13.7745 5.678C13.0225 5.506 12.2825 5.338 11.5665 5.158L11.5705 5.14L6.8025 3.95L5.8825 7.642C5.8825 7.642 8.4485 8.23 8.3945 8.266C9.7945 8.616 10.0465 9.542 10.0045 10.278L8.3925 16.748C8.4885 16.772 8.6125 16.808 8.7525 16.862L8.3865 16.772L6.1265 25.836C5.9545 26.26 5.5205 26.898 4.5405 26.656C4.5765 26.706 2.0285 26.03 2.0285 26.03L0.3125 29.986L4.8125 31.108C5.6485 31.318 6.4685 31.538 7.2745 31.744L5.8445 37.488L9.2985 38.348L10.7145 32.668C11.6585 32.922 12.5745 33.158 13.4705 33.382L12.0585 39.038L15.5145 39.898L16.9445 34.166C22.8405 35.282 27.2725 34.832 29.1385 29.5C30.6425 25.208 29.0645 22.73 25.9625 21.116C28.2225 20.596 29.9225 19.11 30.3765 16.04ZM22.4765 27.116C21.4105 31.41 14.1805 29.088 11.8365 28.506L13.7365 20.896C16.0805 21.482 23.5945 22.64 22.4765 27.116ZM23.5465 15.978C22.5725 19.884 16.5565 17.898 14.6065 17.412L16.3265 10.512C18.2765 10.998 24.5625 11.904 23.5465 15.978Z" fill="#3C3C3C"/>
</svg>
