<svg width="797" height="738" viewBox="0 0 797 738" fill="none" xmlns="http://www.w3.org/2000/svg">
<path d="M797.374 348.792C797.374 298.54 660.637 256.613 478.929 246.94L478.915 166.872H705.799V0.237793H85.404V166.872H312.27V247.332C133.871 257.668 0.421875 299.157 0.421875 348.792C0.421875 398.433 133.871 439.926 312.27 450.245V737.766H478.915V450.636C660.637 440.984 797.374 399.044 797.374 348.792ZM398.896 398.296C203.857 398.296 45.7422 368.109 45.7422 330.85C45.7422 299.302 159.119 272.816 312.27 265.446V284.436H312.288V362.253C339.899 363.802 368.918 364.613 398.896 364.613C426.5 364.613 453.307 363.911 478.932 362.627V265.157C635.403 272.075 752.057 298.839 752.057 330.85C752.054 368.109 593.935 398.296 398.896 398.296Z" fill="#3C3C3C"/>
</svg>
